<svg width="230" height="230" viewBox="0 0 230 230" fill="none" xmlns="http://www.w3.org/2000/svg">
<g clip-path="url(#clip0_118_2)">
<path d="M142.9 205.09C137.17 206.88 131.2 208.14 125.06 208.81C124.66 208.85 124.27 208.88 123.88 208.92V208.94L123.86 211.21L123.71 229.09C130.28 228.59 136.68 227.53 142.89 225.96C164.98 220.36 184.55 208.33 199.45 191.98L186.65 176.16C175.21 189.55 160.09 199.72 142.89 205.1L142.9 205.09Z" fill="rgb(82, 2, 77)"/>
<path d="M213.18 55.81L205.8 43.5L151.25 110.87L83.1 43.59V224.75C86.92 226.11 90.99 227.27 95.3 228.16C97.84 228.69 100.46 229.11 103.18 229.44V91.61L152.93 140.7L202.56 79.4C207.04 90.56 209.38 102.54 209.38 114.72C209.38 130.51 205.49 145.42 198.61 158.52L212.11 175.3C223.1 157.71 229.45 136.94 229.45 114.72C229.45 93.93 223.83 73.56 213.19 55.81H213.18Z" fill="rgb(82, 2, 77)"/>
<path d="M62.62 193.57C53.34 187.39 46.47 180.47 41.88 175.04C41.56 174.66 41.23 174.28 40.92 173.89C40.8 173.75 40.69 173.62 40.59 173.48C40.55 173.43 40.51 173.39 40.47 173.34C38.48 170.83 36.62 168.22 34.89 165.51C34.87 165.49 34.86 165.47 34.85 165.45C32.27 161.41 30 157.15 28.05 152.74C22.93 141.1 20.08 128.24 20.08 114.73C20.08 62.54 62.54 20.09 114.73 20.09C138.53 20.09 160.97 28.81 178.42 44.72L191.07 29.1C170.04 10.28 143.17 0 114.72 0C51.46 0 0 51.46 0 114.72C0 138.07 7.01 159.81 19.05 177.96C28.99 192.96 42.37 205.49 58.06 214.43C58.12 214.46 58.17 214.5 58.23 214.53C58.59 214.74 58.95 214.94 59.31 215.14C60.44 215.78 61.57 216.39 62.7 216.97V216.95L62.62 193.69V193.57Z" fill="rgb(82, 2, 77)"/>
</g>
<defs>
<clipPath id="clip0_118_2">
<rect width="229.44" height="229.44" fill="white"/>
</clipPath>
</defs>
</svg>
